<svg width="9" height="20" viewBox="0 0 9 20" fill="none" xmlns="http://www.w3.org/2000/svg">
    <path d="M7.93694 1.2566C7.84809 1.13874 7.74254 1.04522 7.62634 0.981415C7.51013 0.917609 7.38556 0.884766 7.25974 0.884766C7.13393 0.884766 7.00936 0.917609 6.89315 0.981415C6.77695 1.04522 6.6714 1.13874 6.58255 1.2566L0.223777 9.67079C0.152841 9.76447 0.0965623 9.87573 0.0581637 9.99822C0.0197651 10.1207 0 10.252 0 10.3846C0 10.5172 0.0197651 10.6486 0.0581637 10.771C0.0965623 10.8935 0.152841 11.0048 0.223777 11.0985L6.58255 19.5127C6.95749 20.0088 7.562 20.0088 7.93694 19.5127C8.31189 19.0165 8.31189 18.2166 7.93694 17.7205L2.39693 10.3796L7.94459 3.03867C8.31189 2.55265 8.31189 1.74262 7.93694 1.2566Z" fill="#757575"/>
</svg>
