<svg width="9" height="20" xmlns="http://www.w3.org/2000/svg" fill="none">
  <path stroke="null" id="svg_1" fill="#757575" d="m0.35855,1.2566c0.10115,-0.11786 0.2213,-0.21138 0.35359,-0.27519c0.13229,-0.0638 0.2741,-0.09664 0.41734,-0.09664c0.14322,0 0.28503,0.03284 0.41732,0.09664c0.13228,0.06381 0.25244,0.15733 0.35359,0.27519l7.23879,8.41419c0.08076,0.09368 0.14483,0.20494 0.18854,0.32743c0.0437,0.12248 0.06621,0.25378 0.06621,0.38638c0,0.1326 -0.02251,0.264 -0.06621,0.3864c-0.04371,0.1225 -0.10778,0.2338 -0.18854,0.3275l-7.23879,8.4142c-0.42683,0.4961 -1.115,0.4961 -1.54183,0c-0.42684,-0.4962 -0.42684,-1.2961 0,-1.7922l6.30672,-7.3409l-6.31543,-7.34093c-0.41813,-0.48602 -0.41813,-1.29605 0.00871,-1.78207z"/>
</svg>