<svg width="9" height="19" viewBox="0 0 9 19" fill="none" xmlns="http://www.w3.org/2000/svg">
<path d="M7.97588 0.367234C7.8866 0.250826 7.78053 0.158469 7.66375 0.0954529C7.54698 0.0324369 7.42179 0 7.29536 0C7.16893 0 7.04375 0.0324369 6.92697 0.0954529C6.8102 0.158469 6.70413 0.250826 6.61484 0.367234L0.224875 8.67722C0.15359 8.76974 0.0970361 8.87963 0.0584491 9.0006C0.0198621 9.12157 0 9.25125 0 9.38222C0 9.51319 0.0198621 9.64287 0.0584491 9.76385C0.0970361 9.88482 0.15359 9.99471 0.224875 10.0872L6.61484 18.3972C6.99163 18.8872 7.5991 18.8872 7.97588 18.3972C8.35267 17.9072 8.35267 17.1172 7.97588 16.6272L2.40869 9.37722L7.98357 2.12723C8.35267 1.64723 8.35267 0.847233 7.97588 0.367234Z" fill="#757575"/>
</svg>
