<svg xmlns="http://www.w3.org/2000/svg" width="15" height="8" viewBox="0 0 15 8" fill="none">
    <path d="M7.00125 7.49944C6.7676 7.4999 6.54116 7.41853 6.36125 7.26944L0.361252 2.26944C0.157036 2.09971 0.0286112 1.85579 0.0042315 1.59137C-0.0201482 1.32694 0.0615137 1.06366 0.231252 0.859444C0.400991 0.655227 0.644902 0.526803 0.909329 0.502423C1.17375 0.478044 1.43704 0.559705 1.64125 0.729444L7.00125 5.20944L12.3613 0.889444C12.4635 0.806378 12.5812 0.744347 12.7076 0.706915C12.8339 0.669483 12.9664 0.657389 13.0974 0.671329C13.2285 0.685268 13.3554 0.724965 13.4711 0.788138C13.5867 0.851312 13.6887 0.936717 13.7713 1.03944C13.8628 1.14227 13.9322 1.26289 13.975 1.39377C14.0178 1.52464 14.0331 1.66294 14.0199 1.8C14.0068 1.93707 13.9655 2.06994 13.8986 2.1903C13.8317 2.31065 13.7407 2.4159 13.6313 2.49944L7.63125 7.32944C7.44617 7.45496 7.22435 7.51481 7.00125 7.49944Z" fill="#757575"/>
</svg>