<svg width="19" height="10" viewBox="0 0 19 10" fill="none" xmlns="http://www.w3.org/2000/svg">
<path d="M0.367234 1.18084C0.250826 1.27106 0.158469 1.37824 0.0954529 1.49623C0.0324369 1.61423 0 1.74073 0 1.86848C0 1.99624 0.0324369 2.12273 0.0954529 2.24073C0.158469 2.35873 0.250826 2.46591 0.367234 2.55613L8.67722 9.013C8.76974 9.08504 8.87963 9.14218 9.0006 9.18117C9.12157 9.22016 9.25125 9.24023 9.38222 9.24023C9.51319 9.24023 9.64287 9.22016 9.76385 9.18117C9.88482 9.14218 9.99471 9.08504 10.0872 9.013L18.3972 2.55613C18.8872 2.1754 18.8872 1.56157 18.3972 1.18084C17.9072 0.800106 17.1172 0.800106 16.6272 1.18084L9.37722 6.80632L2.12723 1.17307C1.64723 0.800107 0.847233 0.800106 0.367234 1.18084Z" fill="white"/>
</svg>
