<svg width="9" height="19" viewBox="0 0 9 19" fill="none" xmlns="http://www.w3.org/2000/svg">
<path d="M0.283882 0.367234C0.373168 0.250826 0.479236 0.158469 0.596011 0.0954529C0.712785 0.0324369 0.837973 0 0.964403 0C1.09083 0 1.21602 0.0324369 1.33279 0.0954529C1.44957 0.158469 1.55564 0.250826 1.64492 0.367234L8.03489 8.67722C8.10618 8.76974 8.16273 8.87963 8.20132 9.0006C8.2399 9.12157 8.25977 9.25125 8.25977 9.38222C8.25977 9.51319 8.2399 9.64287 8.20132 9.76385C8.16273 9.88482 8.10618 9.99471 8.03489 10.0872L1.64492 18.3972C1.26814 18.8872 0.660666 18.8872 0.283882 18.3972C-0.0929041 17.9072 -0.0929041 17.1172 0.283882 16.6272L5.85107 9.37722L0.276193 2.12723C-0.0929022 1.64723 -0.0929041 0.847233 0.283882 0.367234Z" fill="#757575"/>
</svg>
