<svg width="23" height="22" viewBox="0 0 23 22" fill="none" xmlns="http://www.w3.org/2000/svg">
    <path d="M9.49551 17.7879C4.56963 17.7879 0.601562 13.8198 0.601562 8.89395C0.601562 3.96807 4.56963 0 9.49551 0C14.4214 0 18.3895 3.96807 18.3895 8.89395C18.3895 13.8198 14.4214 17.7879 9.49551 17.7879ZM9.49551 1.3683C5.3222 1.3683 1.96986 4.72064 1.96986 8.89395C1.96986 13.0673 5.3222 16.4196 9.49551 16.4196C13.6688 16.4196 17.0212 13.0673 17.0212 8.89395C17.0212 4.72064 13.6688 1.3683 9.49551 1.3683Z" fill="#757575"/>
    <path d="M16.1197 14.5498L22.2634 20.6935L21.296 21.6609L15.1523 15.5172L16.1197 14.5498Z" fill="#757575"/>
</svg>
