<svg width="26" height="26" viewBox="0 0 26 26" fill="none" xmlns="http://www.w3.org/2000/svg">
    <path d="M0 1.6C0 1.17565 0.168571 0.768687 0.468629 0.468629C0.768687 0.168571 1.17565 0 1.6 0H5.0448C5.42353 0.000174351 5.78992 0.134689 6.07879 0.379615C6.36766 0.624542 6.56029 0.963998 6.6224 1.3376L7.8064 8.4336C7.86297 8.77155 7.80956 9.11873 7.65402 9.42405C7.49848 9.72936 7.24904 9.97668 6.9424 10.1296L4.4656 11.3664C5.35377 13.5674 6.67653 15.5669 8.35484 17.2452C10.0331 18.9235 12.0326 20.2462 14.2336 21.1344L15.472 18.6576C15.6248 18.3513 15.8719 18.102 16.1769 17.9465C16.4819 17.791 16.8287 17.7374 17.1664 17.7936L24.2624 18.9776C24.636 19.0397 24.9755 19.2323 25.2204 19.5212C25.4653 19.8101 25.5998 20.1765 25.6 20.5552V24C25.6 24.4243 25.4314 24.8313 25.1314 25.1314C24.8313 25.4314 24.4243 25.6 24 25.6H20.8C9.312 25.6 0 16.288 0 4.8V1.6Z" fill="#ffffff"/>
</svg>
